<svg width="13" height="18" viewBox="0 0 13 18" fill="none" xmlns="http://www.w3.org/2000/svg">
<path d="M10.3992 12.4031C9.43594 13.4578 8.24766 14.0906 6.90469 14.0906C5.92031 14.0906 5.35781 13.7461 5.00625 13.282C4.47187 12.593 4.24688 11.4469 4.24688 8.87344C4.24688 6.25078 4.47188 5.07656 4.90781 4.41562C5.25938 3.87422 5.92031 3.45938 7.18594 3.45938C8.29688 3.45938 9.46406 3.77578 10.35 4.58438L12.5789 1.86328C11.1867 0.421875 9.18984 0 7.3125 0C4.80938 0 3.16406 0.73125 2.07422 1.86328C0.428906 3.52969 0 6.12422 0 8.94375C0 11.5172 0.351563 14.1609 2.025 15.7992C3.00938 16.8047 4.50703 17.4867 6.75703 17.4867C9.28828 17.4867 11.2359 16.6289 12.8039 14.843L10.3992 12.4031Z" fill="white"/>
</svg>
