<svg width="14" height="17" viewBox="0 0 14 17" fill="none" xmlns="http://www.w3.org/2000/svg">
<path d="M0 0.00703168V16.9031H6.98203C9.13359 16.9031 10.7297 16.3125 11.8125 15.3352C13.5844 13.7461 13.9641 11.1445 13.9641 8.25469C13.9641 5.21719 13.5352 2.98828 12.0164 1.56797C10.9547 0.590626 9.30937 0 6.85547 0H0V0.00703168ZM4.12734 3.46641H6.65859C7.76953 3.46641 8.45859 3.7125 8.90859 4.19766C9.51328 4.85859 9.71719 6.08203 9.71719 8.4375C9.71719 10.8352 9.51328 12.0094 8.92969 12.6492C8.45156 13.1906 7.69219 13.4578 6.63047 13.4578H4.12734V3.46641Z" fill="white"/>
</svg>
