<svg width="16" height="16" viewBox="0 0 16 16" fill="none" xmlns="http://www.w3.org/2000/svg">
<path d="M5.04159 5.04159H1.80722H0.998624C0.794717 5.04159 0.597843 5.03456 0.415031 5.14003C0.0423746 5.358 0.000185395 5.73769 0.000185395 6.13144V8.80331C0.000185395 9.23222 -0.0209084 9.68222 0.386904 9.9494C0.576748 10.0689 0.780655 10.0619 0.998624 10.0619H1.75097H5.04159V13.3455V14.0978C5.04159 14.3158 5.03456 14.5197 5.15409 14.7096C5.42128 15.1174 5.87128 15.0963 6.30018 15.0963H8.97206C9.35878 15.0963 9.7455 15.0541 9.96347 14.6814C10.0689 14.4986 10.0619 14.3017 10.0619 14.0978V13.2892V10.0549H13.3525H14.1049C14.3228 10.0549 14.5267 10.0619 14.7166 9.94237C15.1244 9.67519 15.1033 9.22519 15.1033 8.79628V6.1244C15.1033 5.73769 15.0611 5.35097 14.6885 5.133C14.5057 5.02753 14.3088 5.03456 14.1049 5.03456H13.2892H10.0549V4.0994V1.80722V0.998624C10.0549 0.794717 10.0619 0.597841 9.95643 0.415029C9.73847 0.0423725 9.35878 0.000185395 8.96503 0.000185395H6.29315C5.86425 0.000185395 5.41425 -0.0209084 5.14706 0.386904C5.02753 0.576748 5.03456 0.780655 5.03456 0.998624V1.758C5.04159 5.04159 5.04159 5.04159 5.04159 5.04159Z" fill="#117D67"/>
</svg>
